<svg width="605" height="505" xmlns="http://www.w3.org/2000/svg">

 <g>
  <title>Layer 1</title>
  <path fill="#262627" id="svg_1" d="m7.703,-19.656l0,4.344l5.047,0l0,3.5l-5.047,0l0,6.5c0,0.71 0.14,1.187 0.422,1.437s0.836,0.375 1.672,0.375l2.515,0l0,3.5l-4.187,0c-1.938,0 -3.313,-0.398 -4.125,-1.203c-0.805,-0.812 -1.203,-2.18 -1.203,-4.11l0,-6.5l-2.422,0l0,-3.5l2.422,0l0,-4.343l4.906,0zm355.336,274.054c0,33.602 -27.441,61.602 -61.04,61.602c-33.601,0 -61.038,-28 -61.038,-61.602s27.438,-61.602 61.039,-61.602s61.039,26.879 61.039,61.602zm-239.12,0c0,-59.359 29.12,-111.44 74.48,-143.36l-7.84,-10.078c-48.16,34.16 -78.961,90.719 -78.961,154.56c0,62.719 30.238,118.16 77.281,152.88l7.84,-10.078c-44.242,-34.164 -72.801,-85.121 -72.801,-143.92l0,-0.004l0.001,0zm368.48,0c0,-62.719 -30.801,-119.28 -78.961,-153.44l-7.281,10.078c44.238,31.922 73.922,84.559 73.922,143.36c0,58.238 -28.56,109.2 -71.68,142.24l7.84,10.078c45.921,-34.715 76.16,-90.152 76.16,-152.31l0,-0.006z"/>
  <path fill="#262627" id="svg_2" d="m541.679,254.398c0,77.84 -38.078,147.84 -96.32,191.52l7.84,10.078c60.48,-46.48 100.8,-119.84 100.8,-202.16c0,-84 -41.441,-157.92 -104.16,-203.28l-7.84,9.523c61.039,43.68 99.68,114.24 99.68,194.32l0,-0.001zm-479.36,0c0,-79.52 39.762,-150.64 99.12,-194.32l-7.839,-10.078c-62.723,46.477 -103.6,120.4 -103.6,204.4c0,82.879 40.32,156.24 102.48,202.16l7.84,-10.078c-59.922,-43.684 -98,-113.12 -98,-192.08l-0.001,-0.004zm122.64,0c0,-39.199 19.602,-73.922 49.84,-94.641l-7.84,-10.078c-33.039,23.52 -54.879,61.602 -54.879,104.16c0,42 21.281,80.078 52.078,103.6l7.84,-10.078c-28.56,-21.848 -47.04,-55.445 -47.04,-92.965l0,0.002l0.001,0zm246.4,0c0,-42.559 -21.84,-80.641 -53.762,-104.16l-7.84,10.078c29.121,21.281 48.719,55.441 48.719,94.078c0,38.078 -18.48,71.68 -45.922,92.398l7.281,10.078c30.805,-24.633 51.523,-60.473 51.523,-102.47l0,-0.002l0.001,0z"/>
 </g>
</svg>